# xmcd
#
# Track frame offsets:
#	150
#	18984
#	38588
#	57173
#	76091
#	92514
#	110605
#	129510
#	144114
#	166647
#	182764
#
# Disc length: 2743 seconds
#
# Revision: 1
# Processed by: cddbd v1.5.2PL0 Copyright (c) Steve Scherf et al.
# Submitted via: audiograbber 1.83.01
#
DISCID=770ab50b
DTITLE=Rockhaus - Therapie
DYEAR=2015
DGENRE=Deutsch
TTITLE0=Du tust mir gut
TTITLE1=Hier und wir
TTITLE2=Kaleidoskop
TTITLE3=Warum
TTITLE4=Sieg
TTITLE5=gift
TTITLE6=Eine Woche
TTITLE7=Neustart
TTITLE8=Geisteskrank
TTITLE9=gegenverkehr
TTITLE10=Ein Winter
EXTD=
EXTT0=
EXTT1=
EXTT2=
EXTT3=
EXTT4=
EXTT5=
EXTT6=
EXTT7=
EXTT8=
EXTT9=
EXTT10=
PLAYORDER=
